<?xml version="1.0" encoding="UTF-8" standalone="no"?>
<svg
   xmlns:dc="http://purl.org/dc/elements/1.1/"
   xmlns:cc="http://creativecommons.org/ns#"
   xmlns:rdf="http://www.w3.org/1999/02/22-rdf-syntax-ns#"
   xmlns:svg="http://www.w3.org/2000/svg"
   xmlns="http://www.w3.org/2000/svg"
   viewBox="0 0 768 288"
   height="288"
   width="768"
   xml:space="preserve"
   id="svg2"
   version="1.1"><metadata
     id="metadata8"><rdf:RDF><cc:Work
         rdf:about=""><dc:format>image/svg+xml</dc:format><dc:type
           rdf:resource="http://purl.org/dc/dcmitype/StillImage" /></cc:Work></rdf:RDF></metadata><defs
     id="defs6"><clipPath
       id="clipPath18"
       clipPathUnits="userSpaceOnUse"><path
         id="path16"
         d="M 0,216 H 576 V 0 H 0 Z" /></clipPath></defs><g
     transform="matrix(1.3333333,0,0,-1.3333333,0,288)"
     id="g10"><g
       id="g12"><g
         clip-path="url(#clipPath18)"
         id="g14"><g
           transform="translate(198.793,85.6846)"
           id="g20"><path
             id="path22"
             style="fill:#355DA0;fill-opacity:1;fill-rule:nonzero;stroke:none"
             d="m 0,0 c 5.987,0 7.673,3.322 7.673,10.326 v 1.795 C 7.673,19.125 5.987,22.448 0,22.448 H -3.015 V 0 Z M 0.399,-6.285 H -10.199 V 28.733 H 0.399 c 10.289,0 14.591,-4.489 14.591,-16.612 V 10.326 C 14.99,-1.796 10.688,-6.285 0.399,-6.285" /></g><g
           transform="translate(229.6602,98.2559)"
           id="g24"><path
             id="path26"
             style="fill:#355DA0;fill-opacity:1;fill-rule:nonzero;stroke:none"
             d="M 0,0 C 1.952,0 4.436,0.763 4.436,4.713 V 5.161 C 4.436,9.114 1.952,9.876 0,9.876 H -4.479 V 0 Z m -4.479,-18.856 h -7.183 V 16.162 H -0.31 c 5.632,0 12.018,-1.481 12.018,-10.775 V 4.489 c 0,-5.657 -2.351,-8.44 -5.455,-9.742 l 5.455,-13.603 H 3.947 l -4.744,12.57 h -3.682 z" /></g><g
           transform="translate(266.7803,114.4175)"
           id="g28"><path
             id="path30"
             style="fill:#355DA0;fill-opacity:1;fill-rule:nonzero;stroke:none"
             d="m 0,0 v -6.285 h -13.969 v -7.722 h 11.751 v -6.286 h -11.751 v -8.44 H 0 v -6.285 H -21.152 V 0 Z" /></g><g
           transform="translate(279.9072,93.2266)"
           id="g32"><path
             id="path34"
             style="fill:#355DA0;fill-opacity:1;fill-rule:nonzero;stroke:none"
             d="M 0,0 H 5.678 L 2.839,12.885 Z m 7.807,21.282 8.647,-35.109 H 8.781 l -1.684,7.543 h -8.471 l -1.641,-7.543 h -7.716 l 8.648,35.109 z" /></g><g
           transform="translate(319.9102,79.3994)"
           id="g36"><path
             id="path38"
             style="fill:#355DA0;fill-opacity:1;fill-rule:nonzero;stroke:none"
             d="m 0,0 h -7.316 l -6.164,22.402 0.22,-7.004 V 0 h -7.184 V 35.018 H -9.845 L -3.637,12.615 2.527,35.018 H 13.171 V 0 H 5.987 v 15.398 l 0.178,7.004 z" /></g><g
           transform="translate(357.3867,114.4175)"
           id="g40"><path
             id="path42"
             style="fill:#355DA0;fill-opacity:1;fill-rule:nonzero;stroke:none"
             d="m 0,0 v -2.917 h -15.391 v -12.795 h 13.172 v -2.874 h -13.172 v -16.432 h -3.192 V 0 Z" /></g><g
           transform="translate(372.8184,81.8232)"
           id="g44"><path
             id="path46"
             style="fill:#355DA0;fill-opacity:1;fill-rule:nonzero;stroke:none"
             d="m 0,0 c 5.809,0 8.426,4.221 8.426,14.188 v 1.794 C 8.426,25.95 5.809,30.169 0,30.169 h -0.309 c -5.81,0 -8.427,-4.219 -8.427,-14.187 V 14.188 C -8.736,4.221 -6.119,0 -0.309,0 Z m -12.018,14.188 v 1.794 c 0,12.123 3.948,17.106 11.84,17.106 7.938,0 11.887,-4.983 11.887,-17.106 v -1.794 c 0,-12.123 -3.949,-17.105 -11.887,-17.105 -7.892,0 -11.84,4.982 -11.84,17.105" /></g><g
           transform="translate(400.0059,96.5488)"
           id="g48"><path
             id="path50"
             style="fill:#355DA0;fill-opacity:1;fill-rule:nonzero;stroke:none"
             d="M 0,0 C 2.97,0 7.228,1.122 7.228,7.139 V 7.813 C 7.228,13.829 2.97,14.952 0,14.952 H -6.476 V 0 Z m -6.476,-17.149 h -3.192 v 35.018 h 9.579 c 4.921,0 10.598,-1.886 10.598,-9.968 V 7.004 c 0,-5.567 -2.705,-8.171 -5.987,-9.248 l 5.987,-14.905 H 7.006 l -5.5,14.275 C 0.975,-2.918 0.442,-2.918 -0.089,-2.918 h -6.387 z" /></g><g
           transform="translate(432.7793,110.9155)"
           id="g52"><path
             id="path54"
             style="fill:#355DA0;fill-opacity:1;fill-rule:nonzero;stroke:none"
             d="m 0,0 -7.184,-31.875 h -4.391 l -6.43,35.377 h 3.37 l 5.411,-31.381 7.095,31.381 h 4.302 l 7.095,-31.381 5.41,31.381 h 3.37 l -6.429,-35.377 h -4.39 z" /></g><g
           transform="translate(458.8574,91.2959)"
           id="g56"><path
             id="path58"
             style="fill:#355DA0;fill-opacity:1;fill-rule:nonzero;stroke:none"
             d="M 0,0 H 10.997 L 5.5,19.934 Z m 7.805,23.481 9.977,-35.377 H 14.324 L 11.84,-2.917 H -0.799 l -2.484,-8.979 H -6.74 l 9.977,35.377 z" /></g><g
           transform="translate(490.877,96.5488)"
           id="g60"><path
             id="path62"
             style="fill:#355DA0;fill-opacity:1;fill-rule:nonzero;stroke:none"
             d="m 0,0 c 2.972,0 7.229,1.122 7.229,7.139 v 0.674 c 0,6.016 -4.257,7.139 -7.229,7.139 H -6.474 V 0 Z m -6.474,-17.149 h -3.192 v 35.018 h 9.577 c 4.923,0 10.6,-1.886 10.6,-9.968 V 7.004 c 0,-5.567 -2.707,-8.171 -5.989,-9.248 l 5.989,-14.905 H 7.008 l -5.5,14.275 C 0.977,-2.918 0.444,-2.918 -0.089,-2.918 h -6.385 z" /></g><g
           transform="translate(515.9795,82.3184)"
           id="g64"><path
             id="path66"
             style="fill:#355DA0;fill-opacity:1;fill-rule:nonzero;stroke:none"
             d="m 0,0 c 6.651,0 10.376,3.726 10.376,13.692 v 1.795 C 10.376,25.455 6.651,29.182 0,29.182 H -5.678 V 0 Z M 0.265,-2.919 H -8.87 v 35.018 h 9.135 c 8.426,0 13.392,-4.489 13.392,-16.612 V 13.692 C 13.657,1.57 8.691,-2.919 0.265,-2.919" /></g><g
           transform="translate(165.4307,138.2905)"
           id="g68"><path
             id="path70"
             style="fill:#355DA0;fill-opacity:1;fill-rule:nonzero;stroke:none"
             d="m 0,0 -37.786,15.806 c 1.002,-1.175 1.982,-2.421 2.922,-3.745 6.842,-9.662 11.644,-23.176 9.998,-37.257 l 13.045,-21.953 z" /></g><g
           transform="translate(151.6084,84.7803)"
           id="g72"><path
             id="path74"
             style="fill:#355DA0;fill-opacity:1;fill-rule:nonzero;stroke:none"
             d="m 0,0 -12.486,21.012 c -1.087,-3.855 -2.705,-7.707 -4.947,-11.495 -8.115,-13.724 -19.568,-21.959 -30.937,-25.578 l -7.535,-12.992 z" /></g><g
           transform="translate(161.4941,145.3228)"
           id="g76"><path
             id="path78"
             style="fill:#355DA0;fill-opacity:1;fill-rule:nonzero;stroke:none"
             d="m 0,0 c -5.053,6.159 -10.986,11.237 -16.989,14.935 -18.132,11.159 -36.264,8.761 -36.264,8.761 0,0 3.609,-1.563 8.37,-4.922 z" /></g><g
           transform="translate(169.3223,133.3774)"
           id="g80"><path
             id="path82"
             style="fill:#355DA0;fill-opacity:1;fill-rule:nonzero;stroke:none"
             d="m 0,0 -18.897,-75.375 c 6.244,4.929 11.917,11.374 16.573,19.549 C 9.595,-34.905 7.82,-15.423 0,0" /></g><g
           transform="translate(87.4775,51.4521)"
           id="g84"><path
             id="path86"
             style="fill:#355DA0;fill-opacity:1;fill-rule:nonzero;stroke:none"
             d="m 0,0 9.077,15.655 c -20.135,-3.455 -34.95,4.8 -34.95,4.8 0,0 9.662,-13.058 25.204,-20.802 z" /></g><g
           transform="translate(150.4619,78.585)"
           id="g88"><path
             id="path90"
             style="fill:#355DA0;fill-opacity:1;fill-rule:nonzero;stroke:none"
             d="m 0,0 -57.763,-30.018 c 15.273,-5.586 34.812,-4.953 51.523,5.134 z" /></g></g></g></g></svg>
