<?xml version="1.0" encoding="utf-8"?>
<!-- Generator: Adobe Illustrator 17.0.0, SVG Export Plug-In . SVG Version: 6.00 Build 0)  -->
<!DOCTYPE svg PUBLIC "-//W3C//DTD SVG 1.1//EN" "http://www.w3.org/Graphics/SVG/1.1/DTD/svg11.dtd">
<svg version="1.1" id="Layer_1" xmlns="http://www.w3.org/2000/svg" xmlns:xlink="http://www.w3.org/1999/xlink" x="0px" y="0px"
	 width="142.608px" height="155.395px" viewBox="0 0 142.608 155.395" enable-background="new 0 0 142.608 155.395"
	 xml:space="preserve">
<g>
	<path fill="#09998B" d="M125.748,41.573L81.7,23.148c1.17,1.369,2.312,2.821,3.406,4.367c7.978,11.264,13.576,27.016,11.658,43.43
		l15.207,25.59L125.748,41.573z"/>
	<path fill="#09998B" d="M109.638,103.952L95.084,79.457c-1.27,4.492-3.155,8.985-5.769,13.4c-9.461,16-22.812,25.6-36.064,29.817
		l-8.784,15.144L109.638,103.952z"/>
	<path fill="#09998B" d="M121.159,33.376c-5.889-7.181-12.803-13.1-19.802-17.408C80.218,2.958,59.08,5.753,59.08,5.753
		s4.209,1.823,9.759,5.736L121.159,33.376z"/>
	<path fill="#09998B" d="M130.287,47.3l-22.028,87.866c7.278-5.745,13.888-13.257,19.32-22.786
		C141.473,87.99,139.404,65.28,130.287,47.3"/>
	<path fill="#09998B" d="M34.879,142.803l10.583-18.249c-23.473,4.028-40.744-5.595-40.744-5.595s11.264,15.22,29.38,24.247
		L34.879,142.803z"/>
	<path fill="#09998B" d="M108.299,111.174l-67.336,34.991c17.804,6.511,40.579,5.777,60.06-5.983L108.299,111.174z"/>
</g>
</svg>
